<svg width="24" height="24" viewBox="0 0 24 24" fill="none" xmlns="http://www.w3.org/2000/svg">
<rect width="24" height="24" rx="11.4286" fill="white"/>
<path d="M13.9644 16.6001C14.6624 16.6001 15.0109 16.6001 15.2949 16.5141C15.6097 16.4186 15.896 16.247 16.1286 16.0144C16.3612 15.7818 16.5329 15.4954 16.6284 15.1806C16.7144 14.8966 16.7144 14.5481 16.7144 13.8501M16.7144 10.3501C16.7144 9.6521 16.7144 9.3036 16.6284 9.0196C16.5329 8.7048 16.3612 8.41841 16.1286 8.18581C15.896 7.9532 15.6097 7.78156 15.2949 7.6861C15.0109 7.6001 14.6624 7.6001 13.9644 7.6001M10.4644 16.6001C9.76636 16.6001 9.41786 16.6001 9.13386 16.5141C8.81906 16.4186 8.53267 16.247 8.30007 16.0144C8.06746 15.7818 7.89582 15.4954 7.80036 15.1806C7.71436 14.8966 7.71436 14.5481 7.71436 13.8501M7.71436 10.3501C7.71436 9.6521 7.71436 9.3036 7.80036 9.0196C7.89587 8.70475 8.06758 8.41832 8.30028 8.18571C8.53298 7.9531 8.81947 7.78149 9.13436 7.6861C9.41786 7.6001 9.76636 7.6001 10.4644 7.6001" stroke="#333333" stroke-linecap="round" stroke-linejoin="round"/>
</svg>
